# xmcd
#
# Track frame offsets:
#	150
#	20880
#	42272
#	60160
#	85857
#	105852
#	125628
#	148946
#	169996
#	195891
#	232225
#
# Disc length: 3273 seconds
#
# Revision: 2
# Processed by: cddbd v1.5.2PL0 Copyright (c) Steve Scherf et al.
# Submitted via: audiograbber 1.83.01
#
DISCID=920cc70b
DTITLE=Battlelore - Doombound
DYEAR=2011
DGENRE=Metal
TTITLE0=Bloodstained
TTITLE1=Iron Of Death
TTITLE2=Bow And Helm
TTITLE3=Enchanted
TTITLE4=Kärmessurma
TTITLE5=Olden Gods
TTITLE6=Fate Of The Betrayed
TTITLE7=Men As Wolves
TTITLE8=Last Of The Lords
TTITLE9=Doombound
TTITLE10=Kielo
EXTD=
EXTT0=
EXTT1=
EXTT2=
EXTT3=
EXTT4=
EXTT5=
EXTT6=
EXTT7=
EXTT8=
EXTT9=
EXTT10=
PLAYORDER=
